<?xml version="1.0" encoding="utf-8" standalone="no"?>
<!DOCTYPE svg PUBLIC "-//W3C//DTD SVG 1.1//EN"
  "http://www.w3.org/Graphics/SVG/1.1/DTD/svg11.dtd">
<svg xmlns:xlink="http://www.w3.org/1999/xlink" width="288pt" height="144pt" viewBox="0 0 288 144" xmlns="http://www.w3.org/2000/svg" version="1.1">
 <metadata>
  <rdf:RDF xmlns:dc="http://purl.org/dc/elements/1.1/" xmlns:cc="http://creativecommons.org/ns#" xmlns:rdf="http://www.w3.org/1999/02/22-rdf-syntax-ns#">
   <cc:Work>
    <dc:type rdf:resource="http://purl.org/dc/dcmitype/StillImage"/>
    <dc:date>2023-08-28T16:55:21.434519</dc:date>
    <dc:format>image/svg+xml</dc:format>
    <dc:creator>
     <cc:Agent>
      <dc:title>Matplotlib v3.5.2, https://matplotlib.org/</dc:title>
     </cc:Agent>
    </dc:creator>
   </cc:Work>
  </rdf:RDF>
 </metadata>
 <defs>
  <style type="text/css">*{stroke-linejoin: round; stroke-linecap: butt}</style>
 </defs>
 <g id="figure_1">
  <g id="patch_1">
   <path d="M 0 144 
L 288 144 
L 288 0 
L 0 0 
z
" style="fill: #ffffff"/>
  </g>
  <g id="axes_1">
   <g id="patch_2">
    <path d="M 203.04 72.72 
C 203.04 65.439686 201.605937 58.230164 198.819881 51.504031 
C 196.033826 44.777897 191.949959 38.66596 186.802 33.518 
C 181.65404 28.370041 175.542103 24.286174 168.815969 21.500119 
C 162.089836 18.714063 154.880314 17.28 147.6 17.28 
C 140.319686 17.28 133.110164 18.714063 126.384031 21.500119 
C 119.657897 24.286174 113.54596 28.370041 108.398 33.518 
C 103.250041 38.66596 99.166174 44.777897 96.380119 51.504031 
C 93.594063 58.230164 92.16 65.439686 92.16 72.72 
C 92.16 80.000314 93.594063 87.209836 96.380119 93.935969 
C 99.166174 100.662103 103.250041 106.77404 108.398 111.922 
C 113.54596 117.069959 119.657897 121.153826 126.384031 123.939881 
C 133.110164 126.725937 140.319686 128.16 147.6 128.16 
C 154.880314 128.16 162.089836 126.725937 168.815969 123.939881 
C 175.542103 121.153826 181.65404 117.069959 186.802 111.922 
C 191.949959 106.77404 196.033826 100.662103 198.819881 93.935969 
C 201.605937 87.209836 203.04 80.000314 203.04 72.72 
M 147.6 72.72 
C 147.6 72.72 147.6 72.72 147.6 72.72 
C 147.6 72.72 147.6 72.72 147.6 72.72 
C 147.6 72.72 147.6 72.72 147.6 72.72 
C 147.6 72.72 147.6 72.72 147.6 72.72 
C 147.6 72.72 147.6 72.72 147.6 72.72 
C 147.6 72.72 147.6 72.72 147.6 72.72 
C 147.6 72.72 147.6 72.72 147.6 72.72 
C 147.6 72.72 147.6 72.72 147.6 72.72 
C 147.6 72.72 147.6 72.72 147.6 72.72 
C 147.6 72.72 147.6 72.72 147.6 72.72 
C 147.6 72.72 147.6 72.72 147.6 72.72 
C 147.6 72.72 147.6 72.72 147.6 72.72 
C 147.6 72.72 147.6 72.72 147.6 72.72 
C 147.6 72.72 147.6 72.72 147.6 72.72 
C 147.6 72.72 147.6 72.72 147.6 72.72 
C 147.6 72.72 147.6 72.72 147.6 72.72 
M 203.04 72.72 
z
" style="fill: #ffffff"/>
   </g>
   <g id="matplotlib.axis_1">
    <g id="xtick_1">
     <g id="line2d_1">
      <path d="M 147.6 72.72 
L 203.04 72.72 
" clip-path="url(#pe23be8bad1)" style="fill: none; stroke: #b0b0b0; stroke-width: 0.8; stroke-linecap: square"/>
     </g>
     <g id="text_1">
      <!-- 0° -->
      <g transform="translate(206.699375 74.099688)scale(0.05 -0.05)">
       <defs>
        <path id="DejaVuSans-30" d="M 2034 4250 
Q 1547 4250 1301 3770 
Q 1056 3291 1056 2328 
Q 1056 1369 1301 889 
Q 1547 409 2034 409 
Q 2525 409 2770 889 
Q 3016 1369 3016 2328 
Q 3016 3291 2770 3770 
Q 2525 4250 2034 4250 
z
M 2034 4750 
Q 2819 4750 3233 4129 
Q 3647 3509 3647 2328 
Q 3647 1150 3233 529 
Q 2819 -91 2034 -91 
Q 1250 -91 836 529 
Q 422 1150 422 2328 
Q 422 3509 836 4129 
Q 1250 4750 2034 4750 
z
" transform="scale(0.015625)"/>
        <path id="DejaVuSans-b0" d="M 1600 4347 
Q 1350 4347 1178 4173 
Q 1006 4000 1006 3750 
Q 1006 3503 1178 3333 
Q 1350 3163 1600 3163 
Q 1850 3163 2022 3333 
Q 2194 3503 2194 3750 
Q 2194 3997 2020 4172 
Q 1847 4347 1600 4347 
z
M 1600 4750 
Q 1800 4750 1984 4673 
Q 2169 4597 2303 4453 
Q 2447 4313 2519 4134 
Q 2591 3956 2591 3750 
Q 2591 3338 2302 3052 
Q 2013 2766 1594 2766 
Q 1172 2766 890 3047 
Q 609 3328 609 3750 
Q 609 4169 896 4459 
Q 1184 4750 1600 4750 
z
" transform="scale(0.015625)"/>
       </defs>
       <use xlink:href="#DejaVuSans-30"/>
       <use xlink:href="#DejaVuSans-b0" x="63.623047"/>
      </g>
     </g>
    </g>
    <g id="xtick_2">
     <g id="line2d_2">
      <path d="M 147.6 72.72 
L 186.802 33.518 
" clip-path="url(#pe23be8bad1)" style="fill: none; stroke: #b0b0b0; stroke-width: 0.8; stroke-linecap: square"/>
     </g>
     <g id="text_2">
      <!-- 45° -->
      <g transform="translate(186.966944 30.301493)scale(0.05 -0.05)">
       <defs>
        <path id="DejaVuSans-34" d="M 2419 4116 
L 825 1625 
L 2419 1625 
L 2419 4116 
z
M 2253 4666 
L 3047 4666 
L 3047 1625 
L 3713 1625 
L 3713 1100 
L 3047 1100 
L 3047 0 
L 2419 0 
L 2419 1100 
L 313 1100 
L 313 1709 
L 2253 4666 
z
" transform="scale(0.015625)"/>
        <path id="DejaVuSans-35" d="M 691 4666 
L 3169 4666 
L 3169 4134 
L 1269 4134 
L 1269 2991 
Q 1406 3038 1543 3061 
Q 1681 3084 1819 3084 
Q 2600 3084 3056 2656 
Q 3513 2228 3513 1497 
Q 3513 744 3044 326 
Q 2575 -91 1722 -91 
Q 1428 -91 1123 -41 
Q 819 9 494 109 
L 494 744 
Q 775 591 1075 516 
Q 1375 441 1709 441 
Q 2250 441 2565 725 
Q 2881 1009 2881 1497 
Q 2881 1984 2565 2268 
Q 2250 2553 1709 2553 
Q 1456 2553 1204 2497 
Q 953 2441 691 2322 
L 691 4666 
z
" transform="scale(0.015625)"/>
       </defs>
       <use xlink:href="#DejaVuSans-34"/>
       <use xlink:href="#DejaVuSans-35" x="63.623047"/>
       <use xlink:href="#DejaVuSans-b0" x="127.246094"/>
      </g>
     </g>
    </g>
    <g id="xtick_3">
     <g id="line2d_3">
      <path d="M 147.6 72.72 
L 147.6 17.28 
" clip-path="url(#pe23be8bad1)" style="fill: none; stroke: #b0b0b0; stroke-width: 0.8; stroke-linecap: square"/>
     </g>
     <g id="text_3">
      <!-- 90° -->
      <g transform="translate(143.16875 12.159687)scale(0.05 -0.05)">
       <defs>
        <path id="DejaVuSans-39" d="M 703 97 
L 703 672 
Q 941 559 1184 500 
Q 1428 441 1663 441 
Q 2288 441 2617 861 
Q 2947 1281 2994 2138 
Q 2813 1869 2534 1725 
Q 2256 1581 1919 1581 
Q 1219 1581 811 2004 
Q 403 2428 403 3163 
Q 403 3881 828 4315 
Q 1253 4750 1959 4750 
Q 2769 4750 3195 4129 
Q 3622 3509 3622 2328 
Q 3622 1225 3098 567 
Q 2575 -91 1691 -91 
Q 1453 -91 1209 -44 
Q 966 3 703 97 
z
M 1959 2075 
Q 2384 2075 2632 2365 
Q 2881 2656 2881 3163 
Q 2881 3666 2632 3958 
Q 2384 4250 1959 4250 
Q 1534 4250 1286 3958 
Q 1038 3666 1038 3163 
Q 1038 2656 1286 2365 
Q 1534 2075 1959 2075 
z
" transform="scale(0.015625)"/>
       </defs>
       <use xlink:href="#DejaVuSans-39"/>
       <use xlink:href="#DejaVuSans-30" x="63.623047"/>
       <use xlink:href="#DejaVuSans-b0" x="127.246094"/>
      </g>
     </g>
    </g>
    <g id="xtick_4">
     <g id="line2d_4">
      <path d="M 147.6 72.72 
L 108.398 33.518 
" clip-path="url(#pe23be8bad1)" style="fill: none; stroke: #b0b0b0; stroke-width: 0.8; stroke-linecap: square"/>
     </g>
     <g id="text_4">
      <!-- 135° -->
      <g transform="translate(97.779931 30.301493)scale(0.05 -0.05)">
       <defs>
        <path id="DejaVuSans-31" d="M 794 531 
L 1825 531 
L 1825 4091 
L 703 3866 
L 703 4441 
L 1819 4666 
L 2450 4666 
L 2450 531 
L 3481 531 
L 3481 0 
L 794 0 
L 794 531 
z
" transform="scale(0.015625)"/>
        <path id="DejaVuSans-33" d="M 2597 2516 
Q 3050 2419 3304 2112 
Q 3559 1806 3559 1356 
Q 3559 666 3084 287 
Q 2609 -91 1734 -91 
Q 1441 -91 1130 -33 
Q 819 25 488 141 
L 488 750 
Q 750 597 1062 519 
Q 1375 441 1716 441 
Q 2309 441 2620 675 
Q 2931 909 2931 1356 
Q 2931 1769 2642 2001 
Q 2353 2234 1838 2234 
L 1294 2234 
L 1294 2753 
L 1863 2753 
Q 2328 2753 2575 2939 
Q 2822 3125 2822 3475 
Q 2822 3834 2567 4026 
Q 2313 4219 1838 4219 
Q 1578 4219 1281 4162 
Q 984 4106 628 3988 
L 628 4550 
Q 988 4650 1302 4700 
Q 1616 4750 1894 4750 
Q 2613 4750 3031 4423 
Q 3450 4097 3450 3541 
Q 3450 3153 3228 2886 
Q 3006 2619 2597 2516 
z
" transform="scale(0.015625)"/>
       </defs>
       <use xlink:href="#DejaVuSans-31"/>
       <use xlink:href="#DejaVuSans-33" x="63.623047"/>
       <use xlink:href="#DejaVuSans-35" x="127.246094"/>
       <use xlink:href="#DejaVuSans-b0" x="190.869141"/>
      </g>
     </g>
    </g>
    <g id="xtick_5">
     <g id="line2d_5">
      <path d="M 147.6 72.72 
L 92.16 72.72 
" clip-path="url(#pe23be8bad1)" style="fill: none; stroke: #b0b0b0; stroke-width: 0.8; stroke-linecap: square"/>
     </g>
     <g id="text_5">
      <!-- 180° -->
      <g transform="translate(79.638125 74.099688)scale(0.05 -0.05)">
       <defs>
        <path id="DejaVuSans-38" d="M 2034 2216 
Q 1584 2216 1326 1975 
Q 1069 1734 1069 1313 
Q 1069 891 1326 650 
Q 1584 409 2034 409 
Q 2484 409 2743 651 
Q 3003 894 3003 1313 
Q 3003 1734 2745 1975 
Q 2488 2216 2034 2216 
z
M 1403 2484 
Q 997 2584 770 2862 
Q 544 3141 544 3541 
Q 544 4100 942 4425 
Q 1341 4750 2034 4750 
Q 2731 4750 3128 4425 
Q 3525 4100 3525 3541 
Q 3525 3141 3298 2862 
Q 3072 2584 2669 2484 
Q 3125 2378 3379 2068 
Q 3634 1759 3634 1313 
Q 3634 634 3220 271 
Q 2806 -91 2034 -91 
Q 1263 -91 848 271 
Q 434 634 434 1313 
Q 434 1759 690 2068 
Q 947 2378 1403 2484 
z
M 1172 3481 
Q 1172 3119 1398 2916 
Q 1625 2713 2034 2713 
Q 2441 2713 2670 2916 
Q 2900 3119 2900 3481 
Q 2900 3844 2670 4047 
Q 2441 4250 2034 4250 
Q 1625 4250 1398 4047 
Q 1172 3844 1172 3481 
z
" transform="scale(0.015625)"/>
       </defs>
       <use xlink:href="#DejaVuSans-31"/>
       <use xlink:href="#DejaVuSans-38" x="63.623047"/>
       <use xlink:href="#DejaVuSans-30" x="127.246094"/>
       <use xlink:href="#DejaVuSans-b0" x="190.869141"/>
      </g>
     </g>
    </g>
    <g id="xtick_6">
     <g id="line2d_6">
      <path d="M 147.6 72.72 
L 108.398 111.922 
" clip-path="url(#pe23be8bad1)" style="fill: none; stroke: #b0b0b0; stroke-width: 0.8; stroke-linecap: square"/>
     </g>
     <g id="text_6">
      <!-- 225° -->
      <g transform="translate(97.779931 117.897882)scale(0.05 -0.05)">
       <defs>
        <path id="DejaVuSans-32" d="M 1228 531 
L 3431 531 
L 3431 0 
L 469 0 
L 469 531 
Q 828 903 1448 1529 
Q 2069 2156 2228 2338 
Q 2531 2678 2651 2914 
Q 2772 3150 2772 3378 
Q 2772 3750 2511 3984 
Q 2250 4219 1831 4219 
Q 1534 4219 1204 4116 
Q 875 4013 500 3803 
L 500 4441 
Q 881 4594 1212 4672 
Q 1544 4750 1819 4750 
Q 2544 4750 2975 4387 
Q 3406 4025 3406 3419 
Q 3406 3131 3298 2873 
Q 3191 2616 2906 2266 
Q 2828 2175 2409 1742 
Q 1991 1309 1228 531 
z
" transform="scale(0.015625)"/>
       </defs>
       <use xlink:href="#DejaVuSans-32"/>
       <use xlink:href="#DejaVuSans-32" x="63.623047"/>
       <use xlink:href="#DejaVuSans-35" x="127.246094"/>
       <use xlink:href="#DejaVuSans-b0" x="190.869141"/>
      </g>
     </g>
    </g>
    <g id="xtick_7">
     <g id="line2d_7">
      <path d="M 147.6 72.72 
L 147.6 128.16 
" clip-path="url(#pe23be8bad1)" style="fill: none; stroke: #b0b0b0; stroke-width: 0.8; stroke-linecap: square"/>
     </g>
     <g id="text_7">
      <!-- 270° -->
      <g transform="translate(141.578125 136.039687)scale(0.05 -0.05)">
       <defs>
        <path id="DejaVuSans-37" d="M 525 4666 
L 3525 4666 
L 3525 4397 
L 1831 0 
L 1172 0 
L 2766 4134 
L 525 4134 
L 525 4666 
z
" transform="scale(0.015625)"/>
       </defs>
       <use xlink:href="#DejaVuSans-32"/>
       <use xlink:href="#DejaVuSans-37" x="63.623047"/>
       <use xlink:href="#DejaVuSans-30" x="127.246094"/>
       <use xlink:href="#DejaVuSans-b0" x="190.869141"/>
      </g>
     </g>
    </g>
    <g id="xtick_8">
     <g id="line2d_8">
      <path d="M 147.6 72.72 
L 186.802 111.922 
" clip-path="url(#pe23be8bad1)" style="fill: none; stroke: #b0b0b0; stroke-width: 0.8; stroke-linecap: square"/>
     </g>
     <g id="text_8">
      <!-- 315° -->
      <g transform="translate(185.376319 117.897882)scale(0.05 -0.05)">
       <use xlink:href="#DejaVuSans-33"/>
       <use xlink:href="#DejaVuSans-31" x="63.623047"/>
       <use xlink:href="#DejaVuSans-35" x="127.246094"/>
       <use xlink:href="#DejaVuSans-b0" x="190.869141"/>
      </g>
     </g>
    </g>
   </g>
   <g id="matplotlib.axis_2">
    <g id="ytick_1">
     <g id="line2d_9">
      <path d="M 158.688 72.72 
C 158.688 71.263937 158.401187 69.822033 157.843976 68.476806 
C 157.286765 67.131579 156.469992 65.909192 155.4404 64.8796 
C 154.410808 63.850008 153.188421 63.033235 151.843194 62.476024 
C 150.497967 61.918813 149.056063 61.632 147.6 61.632 
C 146.143937 61.632 144.702033 61.918813 143.356806 62.476024 
C 142.011579 63.033235 140.789192 63.850008 139.7596 64.8796 
C 138.730008 65.909192 137.913235 67.131579 137.356024 68.476806 
C 136.798813 69.822033 136.512 71.263937 136.512 72.72 
C 136.512 74.176063 136.798813 75.617967 137.356024 76.963194 
C 137.913235 78.308421 138.730008 79.530808 139.7596 80.5604 
C 140.789192 81.589992 142.011579 82.406765 143.356806 82.963976 
C 144.702033 83.521187 146.143937 83.808 147.6 83.808 
C 149.056063 83.808 150.497967 83.521187 151.843194 82.963976 
C 153.188421 82.406765 154.410808 81.589992 155.4404 80.5604 
C 156.469992 79.530808 157.286765 78.308421 157.843976 76.963194 
C 158.401187 75.617967 158.688 74.176063 158.688 72.72 
" clip-path="url(#pe23be8bad1)" style="fill: none; stroke: #b0b0b0; stroke-width: 0.8; stroke-linecap: square"/>
     </g>
    </g>
    <g id="ytick_2">
     <g id="line2d_10">
      <path d="M 169.776 72.72 
C 169.776 69.807874 169.202375 66.924065 168.087953 64.233612 
C 166.97353 61.543159 165.339984 59.098384 163.2808 57.0392 
C 161.221616 54.980016 158.776841 53.34647 156.086388 52.232047 
C 153.395935 51.117625 150.512126 50.544 147.6 50.544 
C 144.687874 50.544 141.804065 51.117625 139.113612 52.232047 
C 136.423159 53.34647 133.978384 54.980016 131.9192 57.0392 
C 129.860016 59.098384 128.22647 61.543159 127.112047 64.233612 
C 125.997625 66.924065 125.424 69.807874 125.424 72.72 
C 125.424 75.632126 125.997625 78.515935 127.112047 81.206388 
C 128.22647 83.896841 129.860016 86.341616 131.9192 88.4008 
C 133.978384 90.459984 136.423159 92.09353 139.113612 93.207953 
C 141.804065 94.322375 144.687874 94.896 147.6 94.896 
C 150.512126 94.896 153.395935 94.322375 156.086388 93.207953 
C 158.776841 92.09353 161.221616 90.459984 163.2808 88.4008 
C 165.339984 86.341616 166.97353 83.896841 168.087953 81.206388 
C 169.202375 78.515935 169.776 75.632126 169.776 72.72 
" clip-path="url(#pe23be8bad1)" style="fill: none; stroke: #b0b0b0; stroke-width: 0.8; stroke-linecap: square"/>
     </g>
    </g>
    <g id="ytick_3">
     <g id="line2d_11">
      <path d="M 180.864 72.72 
C 180.864 68.351812 180.003562 64.026098 178.331929 59.990418 
C 176.660295 55.954738 174.209976 52.287576 171.1212 49.1988 
C 168.032424 46.110024 164.365262 43.659705 160.329582 41.988071 
C 156.293902 40.316438 151.968188 39.456 147.6 39.456 
C 143.231812 39.456 138.906098 40.316438 134.870418 41.988071 
C 130.834738 43.659705 127.167576 46.110024 124.0788 49.1988 
C 120.990024 52.287576 118.539705 55.954738 116.868071 59.990418 
C 115.196438 64.026098 114.336 68.351812 114.336 72.72 
C 114.336 77.088188 115.196438 81.413902 116.868071 85.449582 
C 118.539705 89.485262 120.990024 93.152424 124.0788 96.2412 
C 127.167576 99.329976 130.834738 101.780295 134.870418 103.451929 
C 138.906098 105.123562 143.231812 105.984 147.6 105.984 
C 151.968188 105.984 156.293902 105.123562 160.329582 103.451929 
C 164.365262 101.780295 168.032424 99.329976 171.1212 96.2412 
C 174.209976 93.152424 176.660295 89.485262 178.331929 85.449582 
C 180.003562 81.413902 180.864 77.088188 180.864 72.72 
" clip-path="url(#pe23be8bad1)" style="fill: none; stroke: #b0b0b0; stroke-width: 0.8; stroke-linecap: square"/>
     </g>
    </g>
    <g id="ytick_4">
     <g id="line2d_12">
      <path d="M 191.952 72.72 
C 191.952 66.895749 190.804749 61.128131 188.575905 55.747224 
C 186.347061 50.366318 183.079968 45.476768 178.9616 41.3584 
C 174.843232 37.240032 169.953682 33.972939 164.572776 31.744095 
C 159.191869 29.515251 153.424251 28.368 147.6 28.368 
C 141.775749 28.368 136.008131 29.515251 130.627224 31.744095 
C 125.246318 33.972939 120.356768 37.240032 116.2384 41.3584 
C 112.120032 45.476768 108.852939 50.366318 106.624095 55.747224 
C 104.395251 61.128131 103.248 66.895749 103.248 72.72 
C 103.248 78.544251 104.395251 84.311869 106.624095 89.692776 
C 108.852939 95.073682 112.120032 99.963232 116.2384 104.0816 
C 120.356768 108.199968 125.246318 111.467061 130.627224 113.695905 
C 136.008131 115.924749 141.775749 117.072 147.6 117.072 
C 153.424251 117.072 159.191869 115.924749 164.572776 113.695905 
C 169.953682 111.467061 174.843232 108.199968 178.9616 104.0816 
C 183.079968 99.963232 186.347061 95.073682 188.575905 89.692776 
C 190.804749 84.311869 191.952 78.544251 191.952 72.72 
" clip-path="url(#pe23be8bad1)" style="fill: none; stroke: #b0b0b0; stroke-width: 0.8; stroke-linecap: square"/>
     </g>
    </g>
    <g id="ytick_5">
     <g id="line2d_13">
      <path d="M 203.04 72.72 
C 203.04 65.439686 201.605937 58.230164 198.819881 51.504031 
C 196.033826 44.777897 191.949959 38.66596 186.802 33.518 
C 181.65404 28.370041 175.542103 24.286174 168.815969 21.500119 
C 162.089836 18.714063 154.880314 17.28 147.6 17.28 
C 140.319686 17.28 133.110164 18.714063 126.384031 21.500119 
C 119.657897 24.286174 113.54596 28.370041 108.398 33.518 
C 103.250041 38.66596 99.166174 44.777897 96.380119 51.504031 
C 93.594063 58.230164 92.16 65.439686 92.16 72.72 
C 92.16 80.000314 93.594063 87.209836 96.380119 93.935969 
C 99.166174 100.662103 103.250041 106.77404 108.398 111.922 
C 113.54596 117.069959 119.657897 121.153826 126.384031 123.939881 
C 133.110164 126.725937 140.319686 128.16 147.6 128.16 
C 154.880314 128.16 162.089836 126.725937 168.815969 123.939881 
C 175.542103 121.153826 181.65404 117.069959 186.802 111.922 
C 191.949959 106.77404 196.033826 100.662103 198.819881 93.935969 
C 201.605937 87.209836 203.04 80.000314 203.04 72.72 
" clip-path="url(#pe23be8bad1)" style="fill: none; stroke: #b0b0b0; stroke-width: 0.8; stroke-linecap: square"/>
     </g>
    </g>
   </g>
   <g id="line2d_14">
    <path d="M 92.16 72.72 
L 100.415842 92.264318 
L 114.988084 105.331916 
L 130.113959 114.935038 
L 147.6 118.973997 
L 164.956558 114.622437 
L 180.204357 105.324357 
L 195.070899 92.38309 
L 202.942897 72.72 
L 195.084834 53.051138 
L 180.19293 40.12707 
L 165.084398 30.508929 
L 147.6 26.377266 
L 130.077419 30.416748 
L 114.543464 39.663464 
L 99.36591 52.740786 
L 92.16 72.72 
L 92.16 72.72 
" clip-path="url(#pe23be8bad1)" style="fill: none; stroke: #1f77b4; stroke-width: 1.5; stroke-linecap: square"/>
    <defs>
     <path id="m5ed2c1ddb5" d="M 0 0.25 
C 0.066301 0.25 0.129895 0.223658 0.176777 0.176777 
C 0.223658 0.129895 0.25 0.066301 0.25 0 
C 0.25 -0.066301 0.223658 -0.129895 0.176777 -0.176777 
C 0.129895 -0.223658 0.066301 -0.25 0 -0.25 
C -0.066301 -0.25 -0.129895 -0.223658 -0.176777 -0.176777 
C -0.223658 -0.129895 -0.25 -0.066301 -0.25 0 
C -0.25 0.066301 -0.223658 0.129895 -0.176777 0.176777 
C -0.129895 0.223658 -0.066301 0.25 0 0.25 
z
" style="stroke: #1f77b4"/>
    </defs>
    <g clip-path="url(#pe23be8bad1)">
     <use xlink:href="#m5ed2c1ddb5" x="92.16" y="72.72" style="fill: #1f77b4; stroke: #1f77b4"/>
     <use xlink:href="#m5ed2c1ddb5" x="100.415842" y="92.264318" style="fill: #1f77b4; stroke: #1f77b4"/>
     <use xlink:href="#m5ed2c1ddb5" x="114.988084" y="105.331916" style="fill: #1f77b4; stroke: #1f77b4"/>
     <use xlink:href="#m5ed2c1ddb5" x="130.113959" y="114.935038" style="fill: #1f77b4; stroke: #1f77b4"/>
     <use xlink:href="#m5ed2c1ddb5" x="147.6" y="118.973997" style="fill: #1f77b4; stroke: #1f77b4"/>
     <use xlink:href="#m5ed2c1ddb5" x="164.956558" y="114.622437" style="fill: #1f77b4; stroke: #1f77b4"/>
     <use xlink:href="#m5ed2c1ddb5" x="180.204357" y="105.324357" style="fill: #1f77b4; stroke: #1f77b4"/>
     <use xlink:href="#m5ed2c1ddb5" x="195.070899" y="92.38309" style="fill: #1f77b4; stroke: #1f77b4"/>
     <use xlink:href="#m5ed2c1ddb5" x="202.942897" y="72.72" style="fill: #1f77b4; stroke: #1f77b4"/>
     <use xlink:href="#m5ed2c1ddb5" x="195.084834" y="53.051138" style="fill: #1f77b4; stroke: #1f77b4"/>
     <use xlink:href="#m5ed2c1ddb5" x="180.19293" y="40.12707" style="fill: #1f77b4; stroke: #1f77b4"/>
     <use xlink:href="#m5ed2c1ddb5" x="165.084398" y="30.508929" style="fill: #1f77b4; stroke: #1f77b4"/>
     <use xlink:href="#m5ed2c1ddb5" x="147.6" y="26.377266" style="fill: #1f77b4; stroke: #1f77b4"/>
     <use xlink:href="#m5ed2c1ddb5" x="130.077419" y="30.416748" style="fill: #1f77b4; stroke: #1f77b4"/>
     <use xlink:href="#m5ed2c1ddb5" x="114.543464" y="39.663464" style="fill: #1f77b4; stroke: #1f77b4"/>
     <use xlink:href="#m5ed2c1ddb5" x="99.36591" y="52.740786" style="fill: #1f77b4; stroke: #1f77b4"/>
     <use xlink:href="#m5ed2c1ddb5" x="92.16" y="72.72" style="fill: #1f77b4; stroke: #1f77b4"/>
     <use xlink:href="#m5ed2c1ddb5" x="92.16" y="72.72" style="fill: #1f77b4; stroke: #1f77b4"/>
    </g>
   </g>
   <g id="line2d_15">
    <path d="M 101.927072 72.72 
L 106.064559 89.924543 
L 115.133762 105.186238 
L 128.069547 119.870685 
L 147.6 127.736517 
L 167.424553 120.580706 
L 180.475496 105.595496 
L 189.523116 90.085123 
L 193.420079 72.72 
L 189.152506 55.508389 
L 180.104574 40.215426 
L 167.234306 25.318592 
L 147.6 17.28 
L 127.550462 24.316134 
L 114.27619 39.39619 
L 105.484076 55.275013 
L 101.927072 72.72 
L 101.927072 72.72 
" clip-path="url(#pe23be8bad1)" style="fill: none; stroke: #ff7f0e; stroke-width: 1.5; stroke-linecap: square"/>
    <defs>
     <path id="ma4c67b1631" d="M 0 0.25 
C 0.066301 0.25 0.129895 0.223658 0.176777 0.176777 
C 0.223658 0.129895 0.25 0.066301 0.25 0 
C 0.25 -0.066301 0.223658 -0.129895 0.176777 -0.176777 
C 0.129895 -0.223658 0.066301 -0.25 0 -0.25 
C -0.066301 -0.25 -0.129895 -0.223658 -0.176777 -0.176777 
C -0.223658 -0.129895 -0.25 -0.066301 -0.25 0 
C -0.25 0.066301 -0.223658 0.129895 -0.176777 0.176777 
C -0.129895 0.223658 -0.066301 0.25 0 0.25 
z
" style="stroke: #ff7f0e"/>
    </defs>
    <g clip-path="url(#pe23be8bad1)">
     <use xlink:href="#ma4c67b1631" x="101.927072" y="72.72" style="fill: #ff7f0e; stroke: #ff7f0e"/>
     <use xlink:href="#ma4c67b1631" x="106.064559" y="89.924543" style="fill: #ff7f0e; stroke: #ff7f0e"/>
     <use xlink:href="#ma4c67b1631" x="115.133762" y="105.186238" style="fill: #ff7f0e; stroke: #ff7f0e"/>
     <use xlink:href="#ma4c67b1631" x="128.069547" y="119.870685" style="fill: #ff7f0e; stroke: #ff7f0e"/>
     <use xlink:href="#ma4c67b1631" x="147.6" y="127.736517" style="fill: #ff7f0e; stroke: #ff7f0e"/>
     <use xlink:href="#ma4c67b1631" x="167.424553" y="120.580706" style="fill: #ff7f0e; stroke: #ff7f0e"/>
     <use xlink:href="#ma4c67b1631" x="180.475496" y="105.595496" style="fill: #ff7f0e; stroke: #ff7f0e"/>
     <use xlink:href="#ma4c67b1631" x="189.523116" y="90.085123" style="fill: #ff7f0e; stroke: #ff7f0e"/>
     <use xlink:href="#ma4c67b1631" x="193.420079" y="72.72" style="fill: #ff7f0e; stroke: #ff7f0e"/>
     <use xlink:href="#ma4c67b1631" x="189.152506" y="55.508389" style="fill: #ff7f0e; stroke: #ff7f0e"/>
     <use xlink:href="#ma4c67b1631" x="180.104574" y="40.215426" style="fill: #ff7f0e; stroke: #ff7f0e"/>
     <use xlink:href="#ma4c67b1631" x="167.234306" y="25.318592" style="fill: #ff7f0e; stroke: #ff7f0e"/>
     <use xlink:href="#ma4c67b1631" x="147.6" y="17.28" style="fill: #ff7f0e; stroke: #ff7f0e"/>
     <use xlink:href="#ma4c67b1631" x="127.550462" y="24.316134" style="fill: #ff7f0e; stroke: #ff7f0e"/>
     <use xlink:href="#ma4c67b1631" x="114.27619" y="39.39619" style="fill: #ff7f0e; stroke: #ff7f0e"/>
     <use xlink:href="#ma4c67b1631" x="105.484076" y="55.275013" style="fill: #ff7f0e; stroke: #ff7f0e"/>
     <use xlink:href="#ma4c67b1631" x="101.927072" y="72.72" style="fill: #ff7f0e; stroke: #ff7f0e"/>
     <use xlink:href="#ma4c67b1631" x="101.927072" y="72.72" style="fill: #ff7f0e; stroke: #ff7f0e"/>
    </g>
   </g>
   <g id="patch_3">
    <path d="M 203.04 72.72 
C 203.04 65.439686 201.605937 58.230164 198.819881 51.504031 
C 196.033826 44.777897 191.949959 38.66596 186.802 33.518 
C 181.65404 28.370041 175.542103 24.286174 168.815969 21.500119 
C 162.089836 18.714063 154.880314 17.28 147.6 17.28 
C 140.319686 17.28 133.110164 18.714063 126.384031 21.500119 
C 119.657897 24.286174 113.54596 28.370041 108.398 33.518 
C 103.250041 38.66596 99.166174 44.777897 96.380119 51.504031 
C 93.594063 58.230164 92.16 65.439686 92.16 72.72 
C 92.16 80.000314 93.594063 87.209836 96.380119 93.935969 
C 99.166174 100.662103 103.250041 106.77404 108.398 111.922 
C 113.54596 117.069959 119.657897 121.153826 126.384031 123.939881 
C 133.110164 126.725937 140.319686 128.16 147.6 128.16 
C 154.880314 128.16 162.089836 126.725937 168.815969 123.939881 
C 175.542103 121.153826 181.65404 117.069959 186.802 111.922 
C 191.949959 106.77404 196.033826 100.662103 198.819881 93.935969 
C 201.605937 87.209836 203.04 80.000314 203.04 72.72 
" style="fill: none; stroke: #000000; stroke-width: 0.8; stroke-linejoin: miter; stroke-linecap: square"/>
   </g>
   <g id="legend_1">
    <g id="line2d_16">
     <path d="M 191.996406 127.248556 
L 198.996406 127.248556 
L 205.996406 127.248556 
" style="fill: none; stroke: #1f77b4; stroke-width: 1.5; stroke-linecap: square"/>
     <g>
      <use xlink:href="#m5ed2c1ddb5" x="198.996406" y="127.248556" style="fill: #1f77b4; stroke: #1f77b4"/>
     </g>
    </g>
    <g id="text_9">
     <!-- 0_degrees -->
     <g transform="translate(211.596406 129.698556)scale(0.07 -0.07)">
      <defs>
       <path id="DejaVuSans-5f" d="M 3263 -1063 
L 3263 -1509 
L -63 -1509 
L -63 -1063 
L 3263 -1063 
z
" transform="scale(0.015625)"/>
       <path id="DejaVuSans-64" d="M 2906 2969 
L 2906 4863 
L 3481 4863 
L 3481 0 
L 2906 0 
L 2906 525 
Q 2725 213 2448 61 
Q 2172 -91 1784 -91 
Q 1150 -91 751 415 
Q 353 922 353 1747 
Q 353 2572 751 3078 
Q 1150 3584 1784 3584 
Q 2172 3584 2448 3432 
Q 2725 3281 2906 2969 
z
M 947 1747 
Q 947 1113 1208 752 
Q 1469 391 1925 391 
Q 2381 391 2643 752 
Q 2906 1113 2906 1747 
Q 2906 2381 2643 2742 
Q 2381 3103 1925 3103 
Q 1469 3103 1208 2742 
Q 947 2381 947 1747 
z
" transform="scale(0.015625)"/>
       <path id="DejaVuSans-65" d="M 3597 1894 
L 3597 1613 
L 953 1613 
Q 991 1019 1311 708 
Q 1631 397 2203 397 
Q 2534 397 2845 478 
Q 3156 559 3463 722 
L 3463 178 
Q 3153 47 2828 -22 
Q 2503 -91 2169 -91 
Q 1331 -91 842 396 
Q 353 884 353 1716 
Q 353 2575 817 3079 
Q 1281 3584 2069 3584 
Q 2775 3584 3186 3129 
Q 3597 2675 3597 1894 
z
M 3022 2063 
Q 3016 2534 2758 2815 
Q 2500 3097 2075 3097 
Q 1594 3097 1305 2825 
Q 1016 2553 972 2059 
L 3022 2063 
z
" transform="scale(0.015625)"/>
       <path id="DejaVuSans-67" d="M 2906 1791 
Q 2906 2416 2648 2759 
Q 2391 3103 1925 3103 
Q 1463 3103 1205 2759 
Q 947 2416 947 1791 
Q 947 1169 1205 825 
Q 1463 481 1925 481 
Q 2391 481 2648 825 
Q 2906 1169 2906 1791 
z
M 3481 434 
Q 3481 -459 3084 -895 
Q 2688 -1331 1869 -1331 
Q 1566 -1331 1297 -1286 
Q 1028 -1241 775 -1147 
L 775 -588 
Q 1028 -725 1275 -790 
Q 1522 -856 1778 -856 
Q 2344 -856 2625 -561 
Q 2906 -266 2906 331 
L 2906 616 
Q 2728 306 2450 153 
Q 2172 0 1784 0 
Q 1141 0 747 490 
Q 353 981 353 1791 
Q 353 2603 747 3093 
Q 1141 3584 1784 3584 
Q 2172 3584 2450 3431 
Q 2728 3278 2906 2969 
L 2906 3500 
L 3481 3500 
L 3481 434 
z
" transform="scale(0.015625)"/>
       <path id="DejaVuSans-72" d="M 2631 2963 
Q 2534 3019 2420 3045 
Q 2306 3072 2169 3072 
Q 1681 3072 1420 2755 
Q 1159 2438 1159 1844 
L 1159 0 
L 581 0 
L 581 3500 
L 1159 3500 
L 1159 2956 
Q 1341 3275 1631 3429 
Q 1922 3584 2338 3584 
Q 2397 3584 2469 3576 
Q 2541 3569 2628 3553 
L 2631 2963 
z
" transform="scale(0.015625)"/>
       <path id="DejaVuSans-73" d="M 2834 3397 
L 2834 2853 
Q 2591 2978 2328 3040 
Q 2066 3103 1784 3103 
Q 1356 3103 1142 2972 
Q 928 2841 928 2578 
Q 928 2378 1081 2264 
Q 1234 2150 1697 2047 
L 1894 2003 
Q 2506 1872 2764 1633 
Q 3022 1394 3022 966 
Q 3022 478 2636 193 
Q 2250 -91 1575 -91 
Q 1294 -91 989 -36 
Q 684 19 347 128 
L 347 722 
Q 666 556 975 473 
Q 1284 391 1588 391 
Q 1994 391 2212 530 
Q 2431 669 2431 922 
Q 2431 1156 2273 1281 
Q 2116 1406 1581 1522 
L 1381 1569 
Q 847 1681 609 1914 
Q 372 2147 372 2553 
Q 372 3047 722 3315 
Q 1072 3584 1716 3584 
Q 2034 3584 2315 3537 
Q 2597 3491 2834 3397 
z
" transform="scale(0.015625)"/>
      </defs>
      <use xlink:href="#DejaVuSans-30"/>
      <use xlink:href="#DejaVuSans-5f" x="63.623047"/>
      <use xlink:href="#DejaVuSans-64" x="113.623047"/>
      <use xlink:href="#DejaVuSans-65" x="177.099609"/>
      <use xlink:href="#DejaVuSans-67" x="238.623047"/>
      <use xlink:href="#DejaVuSans-72" x="302.099609"/>
      <use xlink:href="#DejaVuSans-65" x="340.962891"/>
      <use xlink:href="#DejaVuSans-65" x="402.486328"/>
      <use xlink:href="#DejaVuSans-73" x="464.009766"/>
     </g>
    </g>
    <g id="line2d_17">
     <path d="M 191.996406 137.717931 
L 198.996406 137.717931 
L 205.996406 137.717931 
" style="fill: none; stroke: #ff7f0e; stroke-width: 1.5; stroke-linecap: square"/>
     <g>
      <use xlink:href="#ma4c67b1631" x="198.996406" y="137.717931" style="fill: #ff7f0e; stroke: #ff7f0e"/>
     </g>
    </g>
    <g id="text_10">
     <!-- 90_degrees -->
     <g transform="translate(211.596406 140.167931)scale(0.07 -0.07)">
      <use xlink:href="#DejaVuSans-39"/>
      <use xlink:href="#DejaVuSans-30" x="63.623047"/>
      <use xlink:href="#DejaVuSans-5f" x="127.246094"/>
      <use xlink:href="#DejaVuSans-64" x="177.246094"/>
      <use xlink:href="#DejaVuSans-65" x="240.722656"/>
      <use xlink:href="#DejaVuSans-67" x="302.246094"/>
      <use xlink:href="#DejaVuSans-72" x="365.722656"/>
      <use xlink:href="#DejaVuSans-65" x="404.585938"/>
      <use xlink:href="#DejaVuSans-65" x="466.109375"/>
      <use xlink:href="#DejaVuSans-73" x="527.632812"/>
     </g>
    </g>
   </g>
  </g>
  <g id="axes_2">
   <g id="patch_4">
    <path d="M 43.2 72 
L 43.2 72 
L 43.2 14.4 
L 43.2 14.4 
z
" style="fill: #ffffff"/>
   </g>
   <g id="matplotlib.axis_3"/>
   <g id="matplotlib.axis_4">
    <g id="ytick_6">
     <g id="line2d_18"/>
     <g id="text_11">
      <!-- 0 -->
      <g transform="translate(36.51875 73.899609)scale(0.05 -0.05)">
       <use xlink:href="#DejaVuSans-30"/>
      </g>
     </g>
    </g>
    <g id="ytick_7">
     <g id="line2d_19"/>
     <g id="text_12">
      <!-- 1 -->
      <g transform="translate(36.51875 16.299609)scale(0.05 -0.05)">
       <use xlink:href="#DejaVuSans-31"/>
      </g>
     </g>
    </g>
    <g id="text_13">
     <!-- Averaged Cell Activity -->
     <g transform="translate(35.062969 81.651328)rotate(-90)scale(0.07 -0.07)">
      <defs>
       <path id="DejaVuSans-41" d="M 2188 4044 
L 1331 1722 
L 3047 1722 
L 2188 4044 
z
M 1831 4666 
L 2547 4666 
L 4325 0 
L 3669 0 
L 3244 1197 
L 1141 1197 
L 716 0 
L 50 0 
L 1831 4666 
z
" transform="scale(0.015625)"/>
       <path id="DejaVuSans-76" d="M 191 3500 
L 800 3500 
L 1894 563 
L 2988 3500 
L 3597 3500 
L 2284 0 
L 1503 0 
L 191 3500 
z
" transform="scale(0.015625)"/>
       <path id="DejaVuSans-61" d="M 2194 1759 
Q 1497 1759 1228 1600 
Q 959 1441 959 1056 
Q 959 750 1161 570 
Q 1363 391 1709 391 
Q 2188 391 2477 730 
Q 2766 1069 2766 1631 
L 2766 1759 
L 2194 1759 
z
M 3341 1997 
L 3341 0 
L 2766 0 
L 2766 531 
Q 2569 213 2275 61 
Q 1981 -91 1556 -91 
Q 1019 -91 701 211 
Q 384 513 384 1019 
Q 384 1609 779 1909 
Q 1175 2209 1959 2209 
L 2766 2209 
L 2766 2266 
Q 2766 2663 2505 2880 
Q 2244 3097 1772 3097 
Q 1472 3097 1187 3025 
Q 903 2953 641 2809 
L 641 3341 
Q 956 3463 1253 3523 
Q 1550 3584 1831 3584 
Q 2591 3584 2966 3190 
Q 3341 2797 3341 1997 
z
" transform="scale(0.015625)"/>
       <path id="DejaVuSans-20" transform="scale(0.015625)"/>
       <path id="DejaVuSans-43" d="M 4122 4306 
L 4122 3641 
Q 3803 3938 3442 4084 
Q 3081 4231 2675 4231 
Q 1875 4231 1450 3742 
Q 1025 3253 1025 2328 
Q 1025 1406 1450 917 
Q 1875 428 2675 428 
Q 3081 428 3442 575 
Q 3803 722 4122 1019 
L 4122 359 
Q 3791 134 3420 21 
Q 3050 -91 2638 -91 
Q 1578 -91 968 557 
Q 359 1206 359 2328 
Q 359 3453 968 4101 
Q 1578 4750 2638 4750 
Q 3056 4750 3426 4639 
Q 3797 4528 4122 4306 
z
" transform="scale(0.015625)"/>
       <path id="DejaVuSans-6c" d="M 603 4863 
L 1178 4863 
L 1178 0 
L 603 0 
L 603 4863 
z
" transform="scale(0.015625)"/>
       <path id="DejaVuSans-63" d="M 3122 3366 
L 3122 2828 
Q 2878 2963 2633 3030 
Q 2388 3097 2138 3097 
Q 1578 3097 1268 2742 
Q 959 2388 959 1747 
Q 959 1106 1268 751 
Q 1578 397 2138 397 
Q 2388 397 2633 464 
Q 2878 531 3122 666 
L 3122 134 
Q 2881 22 2623 -34 
Q 2366 -91 2075 -91 
Q 1284 -91 818 406 
Q 353 903 353 1747 
Q 353 2603 823 3093 
Q 1294 3584 2113 3584 
Q 2378 3584 2631 3529 
Q 2884 3475 3122 3366 
z
" transform="scale(0.015625)"/>
       <path id="DejaVuSans-74" d="M 1172 4494 
L 1172 3500 
L 2356 3500 
L 2356 3053 
L 1172 3053 
L 1172 1153 
Q 1172 725 1289 603 
Q 1406 481 1766 481 
L 2356 481 
L 2356 0 
L 1766 0 
Q 1100 0 847 248 
Q 594 497 594 1153 
L 594 3053 
L 172 3053 
L 172 3500 
L 594 3500 
L 594 4494 
L 1172 4494 
z
" transform="scale(0.015625)"/>
       <path id="DejaVuSans-69" d="M 603 3500 
L 1178 3500 
L 1178 0 
L 603 0 
L 603 3500 
z
M 603 4863 
L 1178 4863 
L 1178 4134 
L 603 4134 
L 603 4863 
z
" transform="scale(0.015625)"/>
       <path id="DejaVuSans-79" d="M 2059 -325 
Q 1816 -950 1584 -1140 
Q 1353 -1331 966 -1331 
L 506 -1331 
L 506 -850 
L 844 -850 
Q 1081 -850 1212 -737 
Q 1344 -625 1503 -206 
L 1606 56 
L 191 3500 
L 800 3500 
L 1894 763 
L 2988 3500 
L 3597 3500 
L 2059 -325 
z
" transform="scale(0.015625)"/>
      </defs>
      <use xlink:href="#DejaVuSans-41"/>
      <use xlink:href="#DejaVuSans-76" x="62.533203"/>
      <use xlink:href="#DejaVuSans-65" x="121.712891"/>
      <use xlink:href="#DejaVuSans-72" x="183.236328"/>
      <use xlink:href="#DejaVuSans-61" x="224.349609"/>
      <use xlink:href="#DejaVuSans-67" x="285.628906"/>
      <use xlink:href="#DejaVuSans-65" x="349.105469"/>
      <use xlink:href="#DejaVuSans-64" x="410.628906"/>
      <use xlink:href="#DejaVuSans-20" x="474.105469"/>
      <use xlink:href="#DejaVuSans-43" x="505.892578"/>
      <use xlink:href="#DejaVuSans-65" x="575.716797"/>
      <use xlink:href="#DejaVuSans-6c" x="637.240234"/>
      <use xlink:href="#DejaVuSans-6c" x="665.023438"/>
      <use xlink:href="#DejaVuSans-20" x="692.806641"/>
      <use xlink:href="#DejaVuSans-41" x="724.59375"/>
      <use xlink:href="#DejaVuSans-63" x="791.251953"/>
      <use xlink:href="#DejaVuSans-74" x="846.232422"/>
      <use xlink:href="#DejaVuSans-69" x="885.441406"/>
      <use xlink:href="#DejaVuSans-76" x="913.224609"/>
      <use xlink:href="#DejaVuSans-69" x="972.404297"/>
      <use xlink:href="#DejaVuSans-74" x="1000.1875"/>
      <use xlink:href="#DejaVuSans-79" x="1039.396484"/>
     </g>
    </g>
   </g>
   <g id="patch_5">
    <path d="M 43.2 72 
L 43.2 14.4 
" style="fill: none; stroke: #000000; stroke-width: 0.8; stroke-linejoin: miter; stroke-linecap: square"/>
   </g>
   <g id="patch_6">
    <path d="M 43.2 72 
L 43.2 14.4 
" style="fill: none; stroke: #000000; stroke-width: 0.8; stroke-linejoin: miter; stroke-linecap: square"/>
   </g>
   <g id="patch_7">
    <path d="M 43.2 72 
L 43.2 72 
" style="fill: none; stroke: #000000; stroke-width: 0.8; stroke-linejoin: miter; stroke-linecap: square"/>
   </g>
   <g id="patch_8">
    <path d="M 43.2 14.4 
L 43.2 14.4 
" style="fill: none; stroke: #000000; stroke-width: 0.8; stroke-linejoin: miter; stroke-linecap: square"/>
   </g>
  </g>
 </g>
 <defs>
  <clipPath id="pe23be8bad1">
   <path d="M 203.04 72.72 
C 203.04 65.439686 201.605937 58.230164 198.819881 51.504031 
C 196.033826 44.777897 191.949959 38.66596 186.802 33.518 
C 181.65404 28.370041 175.542103 24.286174 168.815969 21.500119 
C 162.089836 18.714063 154.880314 17.28 147.6 17.28 
C 140.319686 17.28 133.110164 18.714063 126.384031 21.500119 
C 119.657897 24.286174 113.54596 28.370041 108.398 33.518 
C 103.250041 38.66596 99.166174 44.777897 96.380119 51.504031 
C 93.594063 58.230164 92.16 65.439686 92.16 72.72 
C 92.16 80.000314 93.594063 87.209836 96.380119 93.935969 
C 99.166174 100.662103 103.250041 106.77404 108.398 111.922 
C 113.54596 117.069959 119.657897 121.153826 126.384031 123.939881 
C 133.110164 126.725937 140.319686 128.16 147.6 128.16 
C 154.880314 128.16 162.089836 126.725937 168.815969 123.939881 
C 175.542103 121.153826 181.65404 117.069959 186.802 111.922 
C 191.949959 106.77404 196.033826 100.662103 198.819881 93.935969 
C 201.605937 87.209836 203.04 80.000314 203.04 72.72 
M 147.6 72.72 
C 147.6 72.72 147.6 72.72 147.6 72.72 
C 147.6 72.72 147.6 72.72 147.6 72.72 
C 147.6 72.72 147.6 72.72 147.6 72.72 
C 147.6 72.72 147.6 72.72 147.6 72.72 
C 147.6 72.72 147.6 72.72 147.6 72.72 
C 147.6 72.72 147.6 72.72 147.6 72.72 
C 147.6 72.72 147.6 72.72 147.6 72.72 
C 147.6 72.72 147.6 72.72 147.6 72.72 
C 147.6 72.72 147.6 72.72 147.6 72.72 
C 147.6 72.72 147.6 72.72 147.6 72.72 
C 147.6 72.72 147.6 72.72 147.6 72.72 
C 147.6 72.72 147.6 72.72 147.6 72.72 
C 147.6 72.72 147.6 72.72 147.6 72.72 
C 147.6 72.72 147.6 72.72 147.6 72.72 
C 147.6 72.72 147.6 72.72 147.6 72.72 
C 147.6 72.72 147.6 72.72 147.6 72.72 
M 203.04 72.72 
z
"/>
  </clipPath>
 </defs>
</svg>
